<?xml version="1.0" encoding="UTF-8"?>
<svg id="Layer_1" xmlns="http://www.w3.org/2000/svg" xmlns:xlink="http://www.w3.org/1999/xlink" version="1.1" viewBox="0 0 440.4 73.1">
  <!-- Generator: Adobe Illustrator 29.7.1, SVG Export Plug-In . SVG Version: 2.1.1 Build 8)  -->
  <defs>
    <style>
      .st0 {
        fill: none;
      }

      .st1 {
        fill: #4e55fd;
      }

      .st2, .st3, .st4, .st5 {
        isolation: isolate;
      }

      .st6 {
        fill-rule: evenodd;
      }

      .st7, .st3 {
        fill: red;
      }

      .st3 {
        font-family: Plain-Regular, Plain;
        font-size: 12px;
      }

      .st4 {
        fill: url(#SVGID_1_);
        opacity: .6;
      }

      .st5 {
        fill: url(#SVGID_2_);
        opacity: .5;
      }

      .st8 {
        display: none;
      }
    </style>
    <pattern id="SVGID_1_" data-name="SVGID 1 " x="0" y="0" width="6" height="6" patternTransform="translate(-5092.7 -11001.8) rotate(-45) scale(1 -1)" patternUnits="userSpaceOnUse" viewBox="0 0 6 6">
      <g>
        <rect class="st0" width="6" height="6"/>
        <path class="st0" d="M0,6h6V0H0v6Z"/>
        <path class="st1" d="M0,7h2V-1H0V7Z"/>
        <path class="st0" d="M0,6h6V0H0v6Z"/>
      </g>
    </pattern>
    <pattern id="SVGID_2_" data-name="SVGID 2 " x="0" y="0" width="6" height="6" patternTransform="translate(-5092.7 -11001.8) rotate(-45) scale(1 -1)" patternUnits="userSpaceOnUse" viewBox="0 0 6 6">
      <g>
        <rect class="st0" width="6" height="6"/>
        <path class="st0" d="M0,6h6V0H0v6Z"/>
        <path class="st7" d="M0,7h2V-1H0V7Z"/>
        <path class="st0" d="M0,6h6V0H0v6Z"/>
      </g>
    </pattern>
  </defs>
  <g id="BG" class="st8">
    <path d="M-108-203.4h640v480H-108V-203.4Z"/>
    <g id="WBukt2.tif">
      <image id="Layer_0" class="st2" width="346" height="38" transform="translate(40.1 24.2) scale(1 .7)" xlink:href="ts-docs-black-1.png"/>
    </g>
  </g>
  <g id="Art">
    <path d="M221.1,54.8V18.3h1.2v36.6h-1.2Z"/>
    <path d="M196.7,34.7v-2.5h-2.9v-3.5h-2.5v3.5h-2.3v2.5h2.3v7.1c0,2.1,1.7,3.8,3.8,3.8h1.6v-2.5h-1.6c-.7,0-1.3-.6-1.3-1.3v-7.1h2.9ZM182.4,32c2.6,0,4.8,2.1,4.8,4.8v4c0,2.6-2.1,4.8-4.8,4.8h-.9c-2.6,0-4.8-2.2-4.8-4.8v-4c0-2.6,2.2-4.8,4.8-4.8h.9ZM179.2,36.8v4c0,1.3,1.1,2.3,2.3,2.3h.9c1.3,0,2.3-1,2.3-2.3v-4c0-1.3-1-2.3-2.3-2.3h-.9c-1.3,0-2.3,1-2.3,2.3ZM174,36.8v4c0,2.6-2.1,4.8-4.8,4.8h-.3c-1.1,0-2.1-.4-2.9-1v5.3h-2.5v-17.6h2.5v.8c.8-.7,1.8-1,2.9-1h.3c2.6,0,4.8,2.1,4.8,4.8h0ZM171.6,36.8c0-1.3-1-2.3-2.3-2.3h-.9c-1.3,0-2.3,1-2.3,2.3v4c0,1.3,1.1,2.3,2.3,2.3h.9c1.3,0,2.3-1,2.3-2.3v-4ZM152,41.3c.2,1.1,1.2,1.8,2.3,1.8h1.7c1.3,0,2.3-1,2.3-2.3,0-1.4-.9-2.3-2.2-2.8l-2.3-.8c-2.1-.8-3.9-2.2-3.9-4.8s2.1-4.8,4.8-4.8h1.2c2.2,0,4.1,1.5,4.6,3.6l-2.4.7c-.2-1.1-1.1-1.8-2.2-1.8h-1.2c-1.3,0-2.3,1-2.3,2.3s.4,1.8,2.3,2.5l2.3.9c2.3.9,3.7,2.7,3.7,5.1s-2.2,4.8-4.8,4.8h-1.7c-2.2,0-4.1-1.5-4.6-3.6l2.4-.7h0ZM147.3,34.7v-2.5h-2.9v-3.6h-2.5v3.5h-2.3v2.5h2.3v7.1c0,2.1,1.7,3.8,3.8,3.8h1.6v-2.5h-1.6c-.7,0-1.3-.6-1.3-1.3v-7.1h2.9ZM137.5,36.8v8.5h-2.5v-8.5c0-1.3-1-2.3-2.3-2.3h-.9c-1.3,0-2.3,1-2.3,2.3v8.5h-2.5v-17.6h2.5v5.3c.8-.7,1.8-1,2.9-1h.3c2.6,0,4.8,2.1,4.8,4.8ZM123.9,32.2v13c0,2.6-2.1,4.8-4.8,4.8h-1c-2.2,0-4.1-1.5-4.6-3.6l2.4-.7c.2,1.1,1.2,1.8,2.3,1.8h1c1.3,0,2.3-1,2.3-2.3v-1.5c-.8.7-1.8,1-2.9,1h-.3c-2.6,0-4.8-2.1-4.8-4.8v-3.2c0-2.6,2.2-4.8,4.8-4.8h.3c1.1,0,2.1.4,2.9,1v-.8h2.5ZM121.4,40v-3.2c0-1.3-1-2.3-2.3-2.3h-.9c-1.3,0-2.3,1-2.3,2.3v3.2c0,1.3,1,2.3,2.3,2.3h.9c1.3,0,2.3-1,2.3-2.3ZM102.6,32.2v8.5c0,1.3,1,2.3,2.3,2.3h.9c1.3,0,2.3-1,2.3-2.3v-8.5h2.5v8.5c0,2.6-2.1,4.8-4.8,4.8h-.9c-2.6,0-4.8-2.1-4.8-4.8v-8.5h2.5ZM92.5,32c2.6,0,4.8,2.1,4.8,4.8v4c0,2.6-2.1,4.8-4.8,4.8h-.9c-2.6,0-4.8-2.2-4.8-4.8v-4c0-2.6,2.2-4.8,4.8-4.8h.9ZM89.3,36.8v4c0,1.3,1.1,2.3,2.3,2.3h.9c1.3,0,2.3-1,2.3-2.3v-4c0-1.3-1-2.3-2.3-2.3h-.9c-1.3,0-2.3,1-2.3,2.3ZM83.9,36.8v8.5h-2.5v-8.5c0-1.3-1-2.3-2.3-2.3h-.9c-1.3,0-2.3,1-2.3,2.3v8.5h-2.5v-17.6h2.5v5.3c.8-.7,1.8-1,2.9-1h.3c2.6,0,4.8,2.1,4.8,4.8ZM70.9,27.8v2.5h-4.9v15.1h-2.5v-15.1h-4.9v-2.5s12.4,0,12.4,0Z"/>
    <circle cx="35" cy="51.5" r="4.9"/>
    <path d="M39.5,26.8H.6v2.4h13.4v26.8h2.4v-26.8h2.4v26.8h2.4v-26.8h2.4v26.8h2.4v-26.8h13.4v-2.4ZM.6,21.9h39v2.4H.6v-2.4ZM.6,17.1h39v2.4H.6v-2.4Z"/>
  </g>
  <g id="Guides__x28_DELETE_THIS_LAYER_x29_" class="st8">
    <path class="st4" d="M-23.8-7.3v87.7h464.2V-7.3H-23.8ZM.6,17.1h196.2v39H.6S.6,17.1.6,17.1ZM416,56.1h-169.3V17.1h169.3v39Z"/>
    <path class="st5" d="M-48.2-31.7V104.8H464.8V-31.7H-48.2ZM196.7,80.4H-23.8V-7.3h464.2v87.7h-243.7Z"/>
    <g>
      <path class="st6" d="M246.7,17.1h169.3v39h-169.3V17.1Z"/>
      <text class="st3" transform="translate(279.3 41.1)"><tspan x="0" y="0">Fit logo in this area</tspan></text>
    </g>
  </g>
  <g id="Layer_4">
    <path d="M247.2,31h3.6c.7,0,1.4,0,2.1,0,4.2.2,7,2.7,7,7.1s-1.1,5-2.9,6c-1.6,1.1-3.5,1.2-6.2,1.2h-3.5v-14.3h0ZM250.5,42.6h1.1c.8,0,1.6,0,2.1-.3,1.7-.5,2.6-1.8,2.6-4.1s-.9-3.6-2.6-4.1c-.5-.2-1.2-.3-1.9-.3h-1.3v8.8h0ZM275.9,38.2c0,4.6-2.9,7.4-7.3,7.4s-7.2-2.8-7.2-7.4,2.9-7.4,7.3-7.4,7.3,2.9,7.3,7.4h0ZM272.4,38.2c0-2.9-1.4-4.7-3.8-4.7s-3.8,1.8-3.8,4.7,1.4,4.6,3.8,4.6c2.4,0,3.8-1.8,3.8-4.6ZM291.5,40.9c-.9,3-3.4,4.7-6.9,4.7s-7.2-2.8-7.2-7.4,2.9-7.4,7.3-7.4,6,1.8,6.9,4.9h-3.6c-.6-1.4-1.7-2.2-3.3-2.2-2.4,0-3.8,1.8-3.8,4.7s1.4,4.6,3.8,4.6,2.5-.7,3.2-1.9h3.7,0ZM296,41c.2,1.3,1,2,2.5,2s2.2-.7,2.2-1.7-.7-1.2-2.3-1.7l-1-.3c-3.2-.9-4.4-2.1-4.4-4.3s2.1-4.3,5.4-4.3,5.2,1.5,5.3,4.3h-3.3c-.2-1.1-.9-1.7-2.2-1.7s-1.9.6-1.9,1.4c0,1,.7,1.3,1.8,1.6l1.1.3c3.2.9,4.8,1.9,4.8,4.4s-2.3,4.5-5.7,4.5-5.6-1.7-5.7-4.6h3.4Z"/>
  </g>
</svg>